<?xml version="1.0" encoding="UTF-8"?>
<!DOCTYPE svg PUBLIC "-//W3C//DTD SVG 1.1//EN" "http://www.w3.org/Graphics/SVG/1.1/DTD/svg11.dtd">
<!-- Creator: CorelDRAW 2021 (64-Bit) -->
<svg xmlns="http://www.w3.org/2000/svg" xml:space="preserve" width="3300px" height="2100px" version="1.1" style="shape-rendering:geometricPrecision; text-rendering:geometricPrecision; image-rendering:optimizeQuality; fill-rule:evenodd; clip-rule:evenodd"
viewBox="0 0 3300 2100"
 xmlns:xlink="http://www.w3.org/1999/xlink"
 xmlns:xodm="http://www.corel.com/coreldraw/odm/2003">
 <defs>
  <style type="text/css">
   <![CDATA[
    .fil0 {fill:black;fill-rule:nonzero}
   ]]>
  </style>
 </defs>
 <g id="__x0023_Layer_x0020_1">
  <metadata id="CorelCorpID_0Corel-Layer"/>
  <path class="fil0" d="M485.478 176.794c55.946,33.733 120.887,47.984 184.952,56.359 27.676,4.407 55.663,6.881 83.107,12.757 70.25,13.168 135.474,47.674 189.101,94.472 20.461,16.519 38.527,35.976 60.508,50.587 28.425,20.41 62.286,31.517 95.814,40.33 33.5,9.999 68.058,16.699 100.425,30.125 58.859,21.132 110.992,62.416 141.942,117.099 13.967,28.914 24.275,59.813 28.655,91.664 4.897,26.312 13.813,52.417 29.637,74.244 19.121,27.574 43.809,50.432 67.259,74.192 37.109,37.856 70.147,79.861 96.251,126.092 22.111,36.028 38.037,75.3 54.22,114.24l2.732 2.319c-0.438,-27.781 -2.628,-56.102 4.303,-83.341 2.449,-10.179 7.165,-19.585 10.566,-29.455 1.701,-10.154 -3.453,-20.462 0.31,-30.512 -6.263,-8.297 -17.241,-15.462 -15.231,-27.42 1.985,-17.626 0.077,-35.381 -3.04,-52.75 -8.556,-33.398 -31.389,-60.044 -51.541,-87.025 -10.9,-14.535 -22.291,-29.791 -25.692,-48.036 -2.758,-11.957 -0.619,-24.276 1.237,-36.156 2.113,-12.111 8.143,-23.863 6.159,-36.412 -3.35,-19.121 -16.776,-34.842 -32.702,-45.15 -19.38,-12.524 -37.96,-26.775 -53.009,-44.402 -13.375,-17.652 -21.441,-39.144 -23.786,-61.126 0.412,-0.051 1.237,-0.129 1.623,-0.155 4.923,15.153 9.226,30.899 18.555,44.093 11.261,15.54 26.028,28.218 42.237,38.372 11.88,8.684 26.079,14.096 36.464,24.765 11.674,11.236 22.498,24.945 24.559,41.54 3.505,24.379 -10.797,47.341 -6.854,71.796 2.087,26.209 21.698,45.252 35.743,65.817 11.287,17.885 25.074,34.789 30.924,55.483 -1.83,-31.131 -7.371,-62.183 -18.787,-91.278 -3.581,-9.2 -12.395,-18.631 -7.989,-29.042 1.83,-6.83 11.958,-7.474 16.03,-2.423 5.926,5.901 6.751,14.818 4.329,22.523 -3.53,11.081 0.283,22.446 2.86,33.294 8.144,41.594 19.586,83.986 13.89,126.661 6.778,4.2 13.118,9.405 16.699,16.725 5.722,-5.619 10.979,-12.113 18.76,-14.947 -3.092,-46.928 6.572,-93.314 17.705,-138.617 3.093,-10.411 -0.181,-20.823 -1.521,-31.181 -1.313,-9.097 6.186,-19.535 16.081,-17.808 4.69,2.268 7.164,7.576 6.803,12.679 0.877,10.334 -9.148,16.725 -11.364,26.234 -7.757,28.475 -16.493,57.184 -17.421,86.896 10.746,-23.786 24.275,-46.411 41.026,-66.512 11.828,-16.39 24.482,-33.887 25.899,-54.787 3.711,-24.404 -10.153,-47.649 -5.824,-72.002 3.041,-22.394 20.796,-39.118 38.526,-51.283 24.069,-14.43 49.221,-29.454 64.889,-53.524 8.814,-13.452 14.148,-28.759 17.807,-44.324 0.799,24.739 -10.72,48.448 -26.002,67.286 -15.565,19.249 -37.676,31.027 -57.055,45.844 -12.936,10.051 -24.301,24.251 -25.332,41.258 -0.051,13.195 5.283,25.564 7.191,38.501 2.422,16.363 1.725,33.656 -5.077,48.963 -6.701,14.689 -15.849,28.192 -26.673,40.176 -15.977,21.518 -33.372,42.855 -42.082,68.599 -7.499,20.539 -7.138,42.701 -6.417,64.245 0.465,9.715 -7.654,16.08 -13.271,22.807 0.181,9.457 0.129,18.966 -0.464,28.45 1.778,11.699 7.783,22.239 10.334,33.784 6.674,29.378 6.932,59.915 3.66,89.757 28.913,-76.176 66.357,-150.394 120.165,-212.242 15.307,-19.791 33.862,-36.67 50.689,-55.096 27.832,-26.208 55.097,-54.89 69.476,-90.968 8.453,-17.267 10.257,-36.594 14.019,-55.174 7.628,-42.984 25.487,-84.706 54.685,-117.512 27.831,-32.651 64.708,-56.925 104.445,-72.62 45.741,-17.935 94.06,-27.574 140.73,-42.52 34.43,-11.21 66.616,-29.429 93.056,-54.246 18.631,-16.596 36.851,-33.759 57.442,-47.958 43.55,-34.043 94.679,-58.24 148.461,-70.919 24.12,-7.01 49.22,-9.149 73.934,-13.066 72.207,-7.911 145.523,-22.548 209.304,-58.858 -26.646,22.497 -57.57,38.964 -87.231,57.003 -34.764,19.173 -68.91,42.572 -90.84,76.383 -12.421,19.455 -18.734,42.236 -21.054,65.044 -1.108,24.093 1.392,48.653 -5.36,72.155 -6.365,31.182 -30.461,55.071 -56.617,71.331 -15.848,10.128 -31.903,19.843 -47.881,29.765 -43.809,27.187 -72.052,78.831 -68.136,130.628 1.65,40.485 21.905,76.46 36.542,113.285 16.055,38.964 17.678,84.294 2.139,123.671 -17.935,45.638 -58.524,78.856 -102.307,98.57 -41.928,21.672 -91.097,18.013 -134.7,34.326 -34.584,12.653 -58.833,41.695 -88.932,61.538 -9.381,5.928 -17.627,13.736 -27.986,18.04 -38.784,19.92 -82.542,26.363 -125.346,31.542l0.103 2.577c-6.674,-0.593 -13.374,-0.979 -20.049,-0.644 32.032,16.75 68.961,16.364 103.595,23.58 32.625,5.643 64.812,18.09 90.066,39.968 32.651,24.894 51.902,63.395 85.557,87.181 27.291,19.507 60.379,29.223 87.077,49.71 26.621,18.735 48.654,44.35 62.08,74.141 19.199,38.886 21.492,84.886 10.024,126.402 -5.127,20.744 -16.491,40.098 -16.312,61.977 -0.335,19.688 9.329,38.912 24.481,51.308 3.531,3.092 7.783,5.514 10.258,9.741 -23.194,-6.133 -46.361,-19.225 -56.231,-42.16 -14.56,-27.007 -2.113,-58.24 -8.324,-86.845 -6.649,-23.528 -22.213,-44.763 -43.654,-56.823 -21.981,-12.679 -47.34,-18.142 -72.414,-20.178 -20.358,0.284 -41.722,1.855 -59.374,13.04 -16.054,7.988 -25.074,26.44 -23.605,44.014 0.747,14.174 8.22,26.905 17.266,37.445 21.131,24.301 49.684,41.334 79.887,51.953 8.04,2.963 16.544,4.251 25.048,5.205 -33.192,7.705 -68.419,5.283 -101.044,-4.02 -18.581,-5.155 -37.934,-9.304 -54.452,-19.689 22.033,19.92 50.226,30.873 73.677,48.757 9.766,7.397 16.956,17.369 23.965,27.265 -17.601,-12.498 -39.995,-17.807 -61.358,-15.256 -17.421,2.912 -33.269,11.468 -47.777,21.183 -20.436,14.019 -46.876,19.74 -71.1,13.735 -16.622,-3.943 -31.413,-13.014 -47.881,-17.472 -8.684,-1.056 -19.096,-0.077 -24.018,8.221 -5.308,9.432 -3.865,20.873 -7.576,30.923 -7.885,29.791 -34.377,49.995 -61.075,62.571 -16.776,8.761 -36.155,20.1 -39.918,40.355 0.49,17.55 9.407,33.888 7.912,51.67 0.773,18.683 -12.422,36.644 -30.46,41.515 -15.669,3.917 -34.197,0.876 -45.201,-11.751 -13.606,-15.617 -15.926,-38.114 -12.344,-57.829 7.628,-40.509 41.129,-69.218 52.52,-108.207 4.664,-16.004 4.303,-32.934 1.932,-49.273 -4.535,-29.532 -27.986,-52.726 -28.836,-83.211 -0.336,1.495 -1.031,4.484 -1.367,5.978 -1.855,23.58 -12.988,45.201 -26.285,64.426 -14.972,20.641 -29.764,42.262 -37.031,66.976 -4.794,19.225 -5.257,40.949 5.128,58.497 -20.925,-18.167 -26.363,-47.416 -26.388,-73.831 -0.052,-34.376 8.607,-68.754 2.293,-103.028 -7.112,-44.17 -42.263,-78.47 -45.742,-123.67 -5.025,-42.933 15.024,-82.722 31.259,-121.042 15.436,-36.877 18.143,-78.367 9.277,-117.202 -4.329,-17.009 -7.653,-34.403 -14.74,-50.51 -11.133,-25.28 -23.992,-49.891 -39.351,-72.826 4.716,21.441 5.103,44.711 -4.586,64.915 -7.062,15.204 -14.87,32.29 -10,49.324 2.062,7.344 7.861,12.731 14.869,15.411 -11.931,4.844 -18.837,16.699 -22.986,28.295 -4.149,12.575 -0.026,26.234 -4.536,38.707 -2.371,-17.808 0.825,-37.651 -10.256,-53.139 -3.299,-6.416 -9.844,-9.585 -14.766,-14.379 8.891,-1.933 14.869,-9.793 15.436,-18.709 3.53,-28.425 -21.957,-50.741 -20.101,-79.011 -0.051,-10.308 0.541,-20.719 3.505,-30.666 -8.298,9.843 -13.478,21.776 -20.049,32.753 -19.637,33.372 -31.749,70.739 -38.062,108.827 -1.65,22.265 -2.191,44.969 3.298,66.796 9.045,39.325 32.96,73.599 40.098,113.466 3.221,17.008 2.577,34.686 -0.979,51.591 -7.242,40.691 -40.717,71.718 -44.247,113.569 -6.056,37.933 6.494,75.557 3.736,113.517 -2.731,21.93 -9.534,45.304 -26.955,60.147 8.53,-18.812 10.231,-40.382 4.355,-60.224 -11.57,-39.325 -45.561,-66.796 -58.369,-105.555 -3.813,-9.148 -3.453,-19.224 -6.082,-28.63 -1.649,16.338 -6.829,31.981 -15.127,46.154 -17.318,29.558 -19.688,67.131 -5.952,98.57 13.863,30.384 36.49,56.797 44.839,89.628 5.077,19.354 3.377,40.82 -6.855,58.267 -10.746,15.513 -32.238,22.187 -50.045,16.286 -13.168,-3.736 -23.322,-15.076 -27.29,-27.96 -3.505,-12.756 -2.629,-26.363 1.108,-38.938 3.762,-13.35 6.648,-29.224 -2.835,-40.95 -15.282,-21.157 -42.418,-27.032 -62.003,-42.932 -14.586,-10.746 -24.92,-26.595 -31.027,-43.5 -4.097,-12.163 -2.654,-27.11 -12.575,-36.671 -4.51,-4.819 -11.546,-4.535 -17.55,-3.582 -17.756,3.789 -33.372,14.07 -51.282,17.447 -24.146,6.261 -50.381,0.669 -70.893,-13.194 -17.988,-12.293 -38.681,-22.318 -60.896,-22.343 -16.518,-0.464 -31.903,6.958 -45.793,15.101 10.746,-16.905 25.744,-30.744 43.01,-40.794 15.076,-10.591 32.6,-17.446 46.413,-29.867 -21.622,10.719 -45.588,14.998 -69.039,19.687 -26.517,3.531 -53.885,6.547 -80.145,-0.463 22.653,-2.706 44.402,-10.978 63.472,-23.374 21.492,-12.808 42.212,-29.171 54.014,-51.694 9.38,-17.602 7.293,-41.49 -7.524,-55.483 -15.463,-14.972 -37.522,-19.688 -58.241,-21.466 -28.295,-0.078 -56.926,5.875 -82.051,19.121 -28.373,15.719 -49.891,46.335 -48.629,79.604 0.283,24.584 2.964,51.024 -10.334,73.109 -12.421,18.425 -33.217,30.28 -54.812,34.326 18.992,-11.391 35.82,-30.023 37.546,-53.035 2.938,-25.564 -10.05,-48.654 -16.543,-72.543 -8.634,-27.574 -8.221,-57.08 -2.913,-85.221 11.777,-51.025 45.356,-96.715 90.969,-122.588 27.238,-16.983 59.786,-25.306 83.391,-47.958 27.677,-23.967 45.381,-57.442 74.733,-79.707 27.909,-23.245 63.163,-36.593 98.932,-41.438 2.035,-0.825 5.154,-0.077 6.416,-2.345 29.739,-1.52 59.761,-7.5 87.154,-19.457 -6.571,0 -13.143,0.593 -19.662,1.108 -20.771,5.413 -42.495,5.824 -63.858,5.541 -18.941,0.128 -36.928,-7.035 -53.577,-15.462 -13.709,-7.164 -28.81,-12.808 -44.478,-12.061 -23.966,0.852 -45.587,13.788 -69.58,14.844 -29.687,4.407 -59.193,-7.603 -82.412,-25.409 -22.703,-15.23 -42.03,-35.666 -67.363,-46.747 -18.142,-9.921 -38.474,-15.256 -58.936,-17.756 -12.06,-1.649 -24.301,0.026 -36.335,-1.777 38.551,-9.742 80.093,-0.439 114.289,18.966 27.188,14.276 48.86,37.366 77.053,49.943 12.988,5.256 26.775,9.354 40.923,9.199 29.919,0.309 57.338,-17.266 87.592,-13.374 24.791,1.391 42.211,20.976 64.476,29.326 26.724,11.7 56.283,4.355 84.294,3.969l-0.077 -3.557c-52.7,-5.489 -107.847,-16.621 -150.213,-50.534 -25.41,-18.401 -47.83,-41.258 -76.331,-55.123 -38.063,-18.76 -82.207,-14.689 -121.583,-29.275 -44.479,-16.182 -85.943,-44.633 -111.584,-85.015 -23.735,-37.753 -29.404,-85.66 -15.927,-128.077 6.495,-19.25 15.179,-37.624 22.91,-56.385 11.674,-24.172 20.616,-50.38 20.101,-77.542 1.469,-32.727 -8.607,-65.971 -29.069,-91.69 -24.224,-33.784 -64.554,-48.782 -96.689,-73.212 -22.42,-16.158 -41.335,-39.3 -46.644,-67.002 -8.53,-28.554 0.129,-58.834 -6.468,-87.696 -7.267,-39.866 -34.789,-73.135 -67.26,-95.942 -31.104,-22.059 -65.43,-39.042 -97.204,-60.069 -11.185,-7.448 -23.426,-13.839 -32.187,-24.302zm1858.406 915.429c37.623,-25.666 85.711,-38.732 130.706,-27.986 -18.993,1.365 -38.243,0.309 -56.901,4.819 -14.122,3.531 -28.579,7.009 -41.257,14.405 -35.821,20.204 -63.936,52.751 -103.004,67.363 -29.713,11.313 -62.388,5.103 -91.251,-5.644 -18.374,-6.468 -39.016,-6.519 -56.643,2.269 -18.193,9.611 -37.624,17.239 -57.956,20.616 -23.193,2.216 -46.567,0 -69.606,-2.758 0.206,-0.747 0.619,-2.267 0.825,-3.041 29.687,0.825 60.534,6.314 89.267,-3.994 20.462,-6.7 35.358,-24.816 57.03,-28.579 24.018,-3.814 48.086,2.732 70.867,9.895 28.399,7.809 58.911,0.284 83.237,-15.436 15.205,-10.179 29.714,-21.389 44.686,-31.929zm-1601.118 -806.86c15.514,9.252 32.032,16.828 46.515,27.704 46.54,32.727 86.02,74.423 121.119,118.98 18.735,26.311 39.144,51.668 62.106,74.423 -12.293,-2.886 -23.631,-8.864 -35.975,-11.673 -31.001,-6.933 -60.972,-17.602 -90.633,-28.837 -33.27,-13.427 -64.116,-32.497 -91.664,-55.405 -4.613,-4.588 -8.659,-9.716 -13.504,-14.045 10.179,20.281 21.931,40.047 38.681,55.715 31.8,31.696 72.929,52.338 115.707,64.837 30.564,9.922 62.853,14.534 92.257,27.909 28.398,11.261 53.936,31.233 69.425,57.828 13.014,22.085 21.311,46.566 28.424,71.099 7.679,26.776 17.447,53.216 31.774,77.207 26.286,41.386 61.926,77.284 104.652,101.612 -0.025,0.824 -0.129,2.448 -0.154,3.247 -17.395,-7.809 -35.846,-12.885 -53.653,-19.663 -45.201,-19.714 -88.185,-48.989 -114.652,-91.51 -15.951,-23.579 -23.424,-51.359 -35.768,-76.742 -8.865,-21.493 -22.188,-40.923 -37.702,-58.164 -29.043,-28.888 -65.558,-48.963 -103.364,-64.013 21.982,22.652 41.052,49.042 50.407,79.553 9.767,29.171 11.958,60.122 20.41,89.628 10.102,34.557 27.213,69.579 57.931,90.195 -1.289,-9.69 -5.051,-18.838 -6.262,-28.528 6.056,12.576 7.422,28.296 18.502,38.063 32.858,28.94 75.533,43.216 117.693,52.184 62.028,12.911 124.005,26.26 185.08,43.294 39.428,10.669 78.573,22.78 116.068,39.119 51.617,23.94 99.086,56.772 138.823,97.617 -11.467,-18.117 -23.605,-35.795 -35.614,-53.55 -27.445,-44.067 -59.014,-86.639 -100.245,-118.8 -27.858,-22.961 -61.179,-37.418 -93.263,-53.344 -39.401,-18.194 -78.907,-39.454 -107.589,-72.929 -21.673,-23.915 -35.82,-53.344 -47.778,-83.031 -6.545,-16.107 -14.843,-31.517 -25.177,-45.484 -22.034,-33.45 -55.097,-57.828 -89.86,-76.744 -46.18,-25.693 -88.263,-59.838 -118.542,-103.492 -22.498,-27.986 -44.789,-56.797 -73.059,-79.269 -32.856,-28.605 -71.872,-49.272 -112.228,-65.224 -9.587,-3.35 -18.734,-8.349 -28.888,-9.767zm1679.871 68.806c-37.418,28.58 -65.379,66.951 -94.421,103.467 -12.705,15.746 -27.085,30.074 -42.65,42.959 -39.428,34.145 -90.53,51.824 -127.793,88.752 -11.339,11.674 -21.596,24.481 -29.97,38.423 -19.87,29.584 -27.498,65.559 -47.881,94.808 -16.132,25.409 -37.908,47.004 -62.57,64.141 -42.65,29.198 -93.287,43.655 -136.504,71.899 -17.446,11.338 -33.939,24.12 -48.705,38.81 -34.429,32.907 -58.549,74.397 -84.81,113.646 -7.885,13.735 -17.266,26.697 -27.857,38.474 26.285,-22.085 50.355,-47.7 80.35,-65.172 76.718,-51.721 168.64,-71.77 256.979,-94.164 24.276,-5.463 48.319,-12.009 72.904,-16.158 43.114,-8.787 87.077,-18.142 125.732,-40.046 11.803,-8.015 24.43,-15.643 33.321,-27.033 2.448,-2.165 5.283,-2.912 8.478,-2.216 -1.186,-2.166 -2.087,-4.433 -2.655,-6.778 1.598,1.392 3.196,2.835 4.794,4.329 29.301,-25.615 47.391,-62.183 55.457,-99.858 6.778,-31.002 9.38,-63.395 22.961,-92.515 6.932,-16.57 16.158,-32.264 28.27,-45.613 5.102,-6.313 11.596,-11.365 16.441,-17.91 -16.647,7.731 -33.887,14.225 -49.89,23.296 -28.528,15.488 -54.015,37.083 -72.569,63.832 -13.272,18.915 -21.595,40.614 -31.053,61.539 -7.834,23.013 -18.967,44.943 -33.991,64.116 -24.868,32.496 -59.194,56.771 -96.328,73.393 -21.028,10.489 -44.118,15.436 -66.023,23.683 0.593,-1.056 1.804,-3.144 2.397,-4.2 20.332,-9.407 37.238,-24.431 54.452,-38.475 22.188,-20.152 41.825,-43.372 56.642,-69.528 11.932,-20.951 18.916,-44.17 25.977,-67.08 8.736,-35.201 22.883,-69.991 46.566,-97.9 23.322,-26.517 57.776,-38.964 91.097,-47.391 46.927,-11.081 94.679,-24.198 134.907,-51.823 31.387,-19.92 56.564,-48.757 73.624,-81.666 -0.283,-0.257 -0.798,-0.773 -1.056,-1.031 -12.499,18.065 -32.161,29.765 -50.355,41.465 -36.387,23.914 -78.186,37.289 -119.676,49.375 -21.389,6.134 -43.139,11.21 -63.678,19.92 28.966,-26.466 51.489,-58.833 75.532,-89.603 38.63,-47.209 83.546,-90.014 136.221,-121.17 6.184,-4.303 14.612,-5.901 19.328,-12.008 -47.65,14.869 -92.386,38.706 -131.995,69.011zm-1391.427 111.378c0.541,0.902 1.649,2.706 2.216,3.634 14.69,12.138 30.666,22.652 46.129,33.81 35.124,22.704 72.697,42.47 103.337,71.383 29.559,27.806 51.489,62.724 67.647,99.757 23.116,52.647 61.977,98.466 110.966,128.746 14.946,10.618 30.975,19.663 45.535,30.847 -13.787,-13.401 -28.321,-26.208 -40.202,-41.387 -33.707,-39.479 -49.066,-90.401 -62.002,-139.699 -7.474,-21.646 -16.467,-43.216 -30.305,-61.642 -27.806,-37.186 -68.111,-63.343 -111.121,-79.707 -44.402,-14.173 -90.762,-23.605 -132.2,-45.742zm1183.823 21.39c-48.55,14.74 -100.245,25.46 -141.554,56.694 -22.008,15.358 -40.485,35.382 -55.844,57.261 -13.735,21.595 -22.678,45.896 -28.734,70.687 -9.637,28.579 -16.621,58.524 -32.521,84.526 -15.153,29.455 -38.449,53.782 -63.652,74.939 44.582,-27.368 90.273,-56.075 121.506,-99.061 29.016,-37.958 41.026,-85.788 70.48,-123.412 22.627,-31.388 53.267,-56.102 86.562,-75.454 33.217,-20.745 67.44,-40.588 96.793,-66.719 -17.447,7.396 -34.738,15.384 -53.036,20.539zm171.861 342.019c-1.495,15.643 -3.917,31.259 -8.581,46.309 -9.535,28.682 -29.481,52.751 -53.216,70.945 -34.815,26.414 -78.727,35.382 -120.654,43.706 -33.657,7.215 -67.157,17.91 -96.252,36.748 -35.717,22.91 -71.332,47.958 -113.13,58.395 -36.851,9.122 -74.811,15.643 -112.899,13.014 -16.415,0.283 -32.573,-3.273 -48.938,-3.041 38.244,-3.607 77.311,-7.37 113.157,-22.342 26.904,-7.732 51.463,-21.364 76.048,-34.429 28.888,-15.231 55.147,-34.996 79.551,-56.591 24.379,-22.807 47.495,-46.927 72.672,-68.883 16.544,-15.875 36.645,-27.214 55.637,-39.789 -44.891,16.106 -93.416,19.456 -137.637,37.675 -18.04,7.912 -36.078,16.184 -52.391,27.317 -19.637,13.039 -40.304,24.584 -62.26,33.243 -27.42,12.009 -57.03,17.421 -85.892,24.791 -48.756,11.493 -96.199,30.177 -138.488,57.183 -16.235,12.241 -33.579,22.962 -49.453,35.691 32.058,-14.688 66.796,-22.058 98.932,-36.464 5.489,-0.541 10.333,-3.942 15.952,-3.453 -4.562,2.011 -8.84,5.412 -14.045,5.154 -9.251,5.051 -13.813,14.947 -21.312,21.93 -16.983,16.364 -39.711,29.172 -63.987,26.904 18.605,5.128 37.959,6.932 56.72,11.442 42.314,9.123 85.428,16.132 128.824,15.488 48.216,0.515 96.921,-10.153 139.519,-33.063 14.405,-8.633 29.146,-16.647 42.778,-26.517 34.945,-24.482 74.244,-43.14 116.12,-51.978 37.238,-9.742 76.563,-13.736 111.043,-31.981 33.501,-16.158 61.41,-46.231 70.43,-82.826 7.344,-24.223 6.7,-49.967 1.752,-74.578zm-1475.953 3.067c-6.417,34.068 -2.422,71.409 14.972,102.023 13.839,22.112 33.889,40.331 57.185,52.082 43.653,23.657 94.472,25.461 141.013,40.588 15.565,3.943 29.867,11.364 44.273,18.296 28.167,13.839 52.184,34.583 79.964,49.093 30.434,18.322 65.018,28.81 100.014,33.99 36.928,2.912 74.269,2.809 110.94,-3.015 30.485,-2.834 60.147,-10.875 90.323,-15.617 10.283,-1.803 20.307,-4.896 30.692,-6.261 -20.202,-0.207 -40.381,-6.958 -56.1,-19.818 -14.56,-10.102 -23.864,-27.496 -41.825,-32.392 13.374,2.911 25.743,9.018 38.912,12.677 24.327,7.242 47.907,16.829 71.925,24.921 -17.164,-12.756 -33.888,-26.286 -52.52,-36.929 -27.084,-16.88 -56.797,-28.888 -86.458,-40.381 -47.907,-18.04 -100.658,-20.848 -146.606,-44.402 -33.99,-14.921 -61.771,-41.155 -96.87,-53.834 -32.109,-15.54 -67.929,-19.147 -101.971,-28.373 -14.844,-2.242 -28.58,-8.71 -43.294,-11.339 19.25,10.721 37.959,22.575 54.838,36.774 21.338,18.941 42.418,38.166 62.544,58.369 21.441,20.23 44.479,38.784 69.012,55.149 48.525,30.485 100.941,57.673 158.357,65.868 11.855,2.577 24.198,1.984 35.898,5.257 -4.097,1.391 -8.221,2.834 -12.575,2.86 -26.003,1.185 -52.16,2.139 -78.058,-0.773 -26.054,-3.608 -52.133,-9.2 -76.511,-19.199 -35.898,-13.657 -65.946,-38.217 -99.37,-56.539 -19.172,-11.185 -40.227,-18.787 -61.693,-24.198 -29.275,-9.045 -60.276,-11.339 -88.958,-22.446 -20.281,-6.932 -39.712,-16.519 -56.746,-29.661 -34.248,-26.414 -58.137,-67.672 -58.988,-111.456 -0.567,-0.309 -1.752,-0.979 -2.319,-1.314zm551.144 365.986c-34.378,13.581 -71.641,17.601 -108.312,18.658 -63.703,1.598 -129.958,17.214 -180.21,58.369 -27.006,20.899 -49.426,47.184 -77.489,66.796 -25.745,21.26 -58.241,30.949 -87.13,46.798 -26.955,13.684 -51.256,32.934 -69.244,57.287 -8.065,13.427 -17.987,26.594 -20.564,42.443 1.185,-2.422 2.268,-4.87 3.35,-7.292 17.833,-27.549 45.098,-47.495 74.682,-60.973 24.275,-9.741 49.659,-16.673 75.093,-22.677 36.697,-7.113 73.394,-17.06 106.456,-34.867 29.842,-17.807 55.56,-42.726 88.314,-55.509 41.825,-20.281 88.417,-28.037 130.422,-47.803 34.79,-14.767 66.539,-35.717 97.283,-57.442 30.795,-21.801 58.601,-47.648 90.22,-68.316 -40.742,21.879 -78.83,49.35 -122.871,64.528zm252.752 -64.864c36.388,24.714 68.574,55.2 105.039,79.862 39.248,27.909 82.619,50.484 128.902,64.193 45.561,13.813 92.179,28.682 130.86,57.391 18.967,14.199 38.397,28.192 60.302,37.572 27.316,11.339 55.998,19.07 84.887,25.203 44.453,9.999 91.07,21.828 125.731,53.215 12.576,8.994 20.23,22.652 28.296,35.486 -11.03,-38.785 -41.67,-69.142 -75.584,-89.396 -18.657,-12.679 -39.84,-20.591 -60.096,-30.229 -37.109,-16.88 -67.749,-44.686 -96.998,-72.517 -22.575,-20.693 -47.468,-39.556 -75.893,-51.489 -41.85,-19.559 -88.648,-24.558 -134.235,-26.955 -16.468,-1.134 -32.987,-1.494 -49.195,-4.819 -37.651,-5.205 -72.44,-21.492 -105.787,-38.913 -22.368,-12.369 -42.675,-28.45 -66.229,-38.604zm-284.14 132.742c-42.65,22.214 -90.53,30.95 -135.293,47.752 -34.196,12.267 -65.997,32.418 -89.834,60.044 -18.606,22.317 -30.435,52.442 -23.657,81.614 4.974,19.663 16.107,37.959 16.261,58.73 1.34,13.967 -1.855,27.703 -3.479,41.49 6.391,-10.437 15.669,-18.529 22.883,-28.296 18.091,-24.223 21.209,-55.044 32.084,-82.464 10.334,-25.563 29.224,-46.257 46.928,-66.95 -5.206,10.05 -11.571,19.456 -16.235,29.79 -7.809,19.122 -12.189,39.685 -12.422,60.405 -1.005,34.66 -9.999,70.765 -33.295,97.359 -9.689,12.396 -22.368,22.085 -35.485,30.563 11.056,-0.644 20.358,-7.216 30.693,-10.437 21.337,-6.958 42.7,-13.967 63.188,-23.193 20.41,-9.303 37.804,-27.806 41.386,-50.483 3.248,-15.204 1.263,-30.95 4.355,-46.154 1.829,-15.282 5.515,-30.435 12.576,-44.17 3.247,-5.386 2.345,-13.632 7.68,-17.318 4.226,1.315 -0.877,5.618 -2.449,7.216 -7.679,16.854 -11.107,35.408 -9.998,53.911 -0.439,22.781 3.582,45.536 11.957,66.744 11.674,28.862 30.949,53.937 42.65,82.8 9.56,21.982 11.209,45.998 12.498,69.579 6.082,-19.199 5.257,-39.428 4.432,-59.271 -3.556,-35.228 -22.265,-66.127 -32.986,-99.267 -8.762,-25.925 -13.064,-53.575 -10.436,-80.866 1.236,-24.843 11.493,-48.061 23.09,-69.657 16.158,-27.496 39.273,-50.097 64.116,-69.707 27.187,-23.426 54.4,-47.958 73.264,-78.908 13.941,-24.095 26.955,-48.963 44.737,-70.558 -46.567,40.458 -93.443,82.206 -149.209,109.702zm289.603 -109.78c16.648,20.771 28.476,44.634 42.212,67.311 23.94,40.253 60.302,70.868 96.225,99.988 28.708,26.363 52.391,59.813 61.436,98.184 10.153,39.351 2.525,80.686 -10.643,118.361 -9.947,24.354 -21.673,48.371 -26.44,74.451 -3.53,23.244 -2.783,47.185 2.603,70.093 2.397,-19.842 2.216,-40.278 8.865,-59.374 5.901,-16.518 12.601,-32.934 22.213,-47.674 20.049,-31.13 34.815,-66.744 34.223,-104.342 2.139,-24.508 -1.211,-50.51 -14.457,-71.719 18.632,24.739 23.579,56.849 24.275,87.052 -0.102,14.792 3.17,29.712 9.973,42.881 12.164,20.306 33.94,32.109 55.869,39.222 22.756,9.303 46.85,14.946 69.296,25.023 -8.71,-9.948 -20.152,-17.06 -28.655,-27.24 -24.92,-25.743 -36.594,-62.311 -35.692,-97.745 0.309,-32.547 -8.505,-66.435 -30.357,-91.278 0.798,-0.901 2.448,-2.705 3.273,-3.633 -0.026,1.675 -0.104,4.999 -0.13,6.674 9.69,8.143 17.988,17.756 26.003,27.523 14.328,17.188 22.496,38.758 26.929,60.508 4.407,23.657 14.818,46.334 30.306,64.811 5.644,7.603 13.529,13.452 17.601,22.188 -4.407,-19.121 -8.865,-39.247 -3.144,-58.627 3.582,-18.58 15.951,-34.635 16.441,-53.885 2.577,-35.691 -17.884,-69.502 -45.175,-91.071 -40.485,-36.258 -94.937,-48.19 -145.291,-64.142 -29.275,-8.813 -57.365,-21.466 -83.624,-37.057 -19.173,-9.973 -35.357,-24.482 -53.137,-36.567 -16.107,-11.365 -30.049,-25.487 -45.897,-37.187 -9.277,-6.597 -15.797,-16.209 -25.101,-22.729zm-192.166 103.364c-12.499,20.074 -28.554,37.727 -46.773,52.725 -19.431,17.343 -36.207,38.114 -45.819,62.545 -10.051,30.871 -8.788,65.197 3.53,95.271 12.241,31.491 36.8,55.483 56.488,82.232 19.766,26.312 33.012,57.622 35.871,90.556 0.156,-23.502 5.387,-46.411 11.649,-68.909 7.963,-28.424 11.107,-58.678 4.948,-87.773 -6.314,-26.001 -19.611,-49.556 -27.677,-74.965 -3.814,-14.508 -8.633,-28.94 -9.38,-43.989 -2.449,-36.62 3.659,-73.625 17.163,-107.693zm243.758 0.025c16.312,45.794 23.065,96.561 9.174,143.9 -8.736,30.975 -25.615,59.117 -32.624,90.608 -6.52,30.795 2.112,61.899 10.411,91.458 5.617,18.606 8.091,37.984 9.535,57.338 1.932,-29.275 10.565,-58.627 28.939,-81.923 20.178,-28.707 46.876,-53.112 61.281,-85.659 16.468,-38.681 16.854,-85.969 -6.082,-122.176 -20.203,-36.697 -59.708,-57.468 -80.634,-93.546zm-362.455 440.282c-5.592,24.919 6.648,50.045 23.476,67.852 6.107,6.107 9.768,14.844 17.395,19.328 -8.555,-23.683 -26.388,-42.908 -34.042,-67.08 -2.68,-6.572 -2.552,-14.302 -6.829,-20.1zm475.302 18.528c-8.556,23.812 -23.889,44.325 -35.717,66.487 9.122,-5.979 14.611,-15.848 22.549,-23.167 16.209,-15.977 25.203,-40.022 20.152,-62.596 -5.644,4.587 -4.278,13.014 -6.984,19.276z"/>
 </g>
</svg>
